<?xml version="1.0" standalone="no"?>
<!DOCTYPE svg PUBLIC "-//W3C//DTD SVG 20010904//EN"
 "http://www.w3.org/TR/2001/REC-SVG-20010904/DTD/svg10.dtd">
<svg version="1.0" xmlns="http://www.w3.org/2000/svg"
 width="512.000000pt" height="512.000000pt" viewBox="0 0 512.000000 512.000000"
 preserveAspectRatio="xMidYMid meet">

<g transform="translate(0.000000,512.000000) scale(0.100000,-0.100000)"
fill="#000000" stroke="none">
<path d="M3372 5106 c-132 -43 -214 -174 -197 -312 15 -120 5 -109 755 -861
639 -640 700 -699 760 -727 84 -40 188 -43 262 -7 110 53 163 139 163 266 0
139 -16 162 -345 490 l-280 280 75 75 75 75 -108 108 -107 107 -75 -75 -75
-75 -305 304 c-262 262 -313 309 -364 332 -71 32 -170 41 -234 20z"/>
<path d="M2353 4800 c-111 -56 -167 -145 -168 -265 0 -142 -76 -57 1049 -1183
772 -774 1023 -1019 1061 -1039 105 -54 240 -37 333 43 107 91 138 247 73 371
-25 49 -2034 2055 -2081 2079 -23 11 -65 19 -120 22 -79 3 -89 2 -147 -28z"/>
<path d="M2320 2795 l-525 -525 218 -217 217 -218 527 527 528 528 -215 215
c-118 118 -217 215 -220 215 -3 0 -241 -236 -530 -525z"/>
<path d="M584 2820 c-71 -28 -137 -89 -170 -156 -22 -45 -27 -70 -27 -128 0
-135 -65 -63 1056 -1184 616 -617 1028 -1022 1052 -1034 28 -15 65 -23 123
-26 77 -4 87 -3 148 28 45 22 76 46 104 81 48 61 64 107 65 189 0 136 72 56
-1049 1178 -770 772 -1023 1020 -1061 1039 -69 36 -170 41 -241 13z"/>
<path d="M209 1937 c-179 -51 -259 -252 -170 -431 25 -51 77 -108 311 -341
l280 -280 -75 -75 -75 -75 108 -108 107 -107 75 75 75 75 305 -304 c353 -353
365 -361 505 -361 127 0 213 53 266 163 36 74 33 178 -8 262 -28 59 -97 131
-720 757 -637 641 -693 694 -753 722 -78 37 -164 47 -231 28z"/>
</g>
</svg>
